
<svg xmlns="http://www.w3.org/2000/svg" viewBox="0 0 200 200" width="200" height="200">
  
  <g fill="none" stroke="#1c2428" stroke-width="2.4" stroke-linecap="round">
    <path d="M 40 100 A 60 60 0 1 1 160 100"></path>
    <path d="M 50 100 A 50 50 0 1 1 150 100"></path>
    <path d="M 60 100 A 40 40 0 1 1 140 100"></path>
    <path d="M 70 100 A 30 30 0 1 1 130 100"></path>
    <path d="M 80 100 A 20 20 0 1 1 120 100"></path>
  </g>
  
  <g>
    <path d="M 142 60 Q 158 50 168 56" fill="none" stroke="#B87840" stroke-width="1.6" stroke-linecap="round"></path>
    <circle cx="148" cy="58" r="3.2" fill="#B87840"></circle>
    <circle cx="158" cy="54" r="3.6" fill="#B87840"></circle>
    <circle cx="168" cy="56" r="3.0" fill="#B87840"></circle>
    <circle cx="138" cy="74" r="2.6" fill="#B87840"></circle>
    <circle cx="146" cy="80" r="2.2" fill="#B87840"></circle>
  </g>
  
  <g>
    
    <path d="M 100 32 L 110 56 L 110 124 L 90 124 L 90 56 Z" fill="#B87840" stroke="#1c2428" stroke-width="2.2" stroke-linejoin="round"></path>
    
    <path d="M 100 36 L 100 122" stroke="#8A5530" stroke-width="1" opacity="0.55"></path>
    
    <rect x="88" y="124" width="24" height="5" rx="1" fill="#1c2428"></rect>
    
    <rect x="91" y="129" width="18" height="42" rx="3" fill="#1c2428"></rect>
    <circle cx="100" cy="152" r="1.6" fill="#B87840"></circle>
  </g>
</svg>